G75*
G70*
%OFA0B0*%
%FSLAX24Y24*%
%IPPOS*%
%LPD*%
%AMOC8*
5,1,8,0,0,1.08239X$1,22.5*
%
%ADD10R,0.0474X0.0513*%
%ADD11R,0.0513X0.0474*%
%ADD12C,0.0139*%
%ADD13C,0.0187*%
%ADD14R,0.0592X0.0671*%
%ADD15R,0.0671X0.0592*%
%ADD16R,0.0198X0.0671*%
%ADD17R,0.1049X0.1049*%
%ADD18R,0.0789X0.0710*%
%ADD19R,0.1419X0.1025*%
%ADD20R,0.1143X0.1241*%
%ADD21R,0.0960X0.0560*%
%ADD22R,0.0946X0.1497*%
%ADD23R,0.0710X0.0946*%
%ADD24R,0.0572X0.0552*%
%ADD25R,0.0552X0.0206*%
%ADD26R,0.0206X0.0552*%
%ADD27R,0.0480X0.0330*%
%ADD28R,0.0828X0.0513*%
%ADD29R,0.0330X0.0580*%
%ADD30OC8,0.0930*%
%ADD31C,0.0671*%
%ADD32R,0.0631X0.0730*%
%ADD33R,0.0356X0.0434*%
%ADD34R,0.0178X0.0867*%
%ADD35C,0.0946*%
%ADD36R,0.0946X0.0552*%
%ADD37R,0.0867X0.0552*%
%ADD38R,0.0749X0.0671*%
%ADD39R,0.0395X0.0671*%
%ADD40R,0.0671X0.0671*%
%ADD41C,0.0390*%
%ADD42C,0.0360*%
%ADD43R,0.0400X0.0400*%
%ADD44C,0.0400*%
%ADD45R,0.0476X0.0476*%
D10*
X022624Y010945D03*
X023293Y010945D03*
X022870Y012378D03*
X022201Y012378D03*
X022251Y013942D03*
X022921Y013942D03*
X019455Y017549D03*
X018786Y017549D03*
X018766Y018329D03*
X019435Y018329D03*
X019415Y019169D03*
X018746Y019169D03*
X018766Y019969D03*
X019435Y019969D03*
X019435Y020749D03*
X018766Y020749D03*
X015115Y019189D03*
X014446Y019189D03*
X014466Y018429D03*
X015135Y018429D03*
X015175Y017809D03*
X014506Y017809D03*
X028697Y020723D03*
X029366Y020723D03*
X030600Y020908D03*
X031269Y020908D03*
X034083Y020955D03*
X034752Y020955D03*
X034784Y020320D03*
X035453Y020320D03*
X035564Y019608D03*
X034894Y019608D03*
X034677Y018952D03*
X035346Y018952D03*
X035435Y021852D03*
X034766Y021852D03*
X034755Y022630D03*
X035424Y022630D03*
X035363Y023605D03*
X034694Y023605D03*
X036168Y025230D03*
X036838Y025230D03*
X036903Y026237D03*
X036233Y026237D03*
X035013Y025883D03*
X034343Y025883D03*
X034335Y027015D03*
X035004Y027015D03*
X031587Y029367D03*
X030917Y029367D03*
X018234Y028425D03*
X017564Y028425D03*
X017564Y027565D03*
X018234Y027565D03*
X013658Y029762D03*
X012988Y029762D03*
D11*
X007436Y025375D03*
X006767Y025375D03*
X016101Y021683D03*
X016101Y021014D03*
X017819Y022810D03*
X019059Y022770D03*
X019059Y023440D03*
X017819Y023480D03*
X019939Y023440D03*
X019939Y022770D03*
X030727Y018655D03*
X031392Y018619D03*
X030727Y017986D03*
X031392Y017950D03*
X033252Y017844D03*
X033934Y017901D03*
X033934Y018571D03*
X033252Y018513D03*
X015941Y017783D03*
X015941Y017114D03*
X013357Y015392D03*
X013357Y014722D03*
X033249Y027785D03*
X033249Y028454D03*
X032336Y029229D03*
X032336Y029899D03*
X029710Y030000D03*
X028765Y029995D03*
X028765Y029326D03*
X029710Y029331D03*
X025372Y029194D03*
X025372Y028525D03*
X035639Y029580D03*
X036434Y029579D03*
X036434Y030248D03*
X035639Y030250D03*
X035646Y030985D03*
X036353Y031016D03*
X036353Y031685D03*
X035646Y031655D03*
X035724Y028819D03*
X036537Y028858D03*
X036537Y028188D03*
X035724Y028149D03*
D12*
X017499Y019694D02*
X017223Y019694D01*
X017499Y019694D02*
X017499Y019634D01*
X017223Y019634D01*
X017223Y019694D01*
X017223Y019497D02*
X017499Y019497D01*
X017499Y019437D01*
X017223Y019437D01*
X017223Y019497D01*
X017223Y019300D02*
X017499Y019300D01*
X017499Y019240D01*
X017223Y019240D01*
X017223Y019300D01*
X017223Y019103D02*
X017499Y019103D01*
X017499Y019043D01*
X017223Y019043D01*
X017223Y019103D01*
X017106Y018926D02*
X017106Y018650D01*
X017046Y018650D01*
X017046Y018926D01*
X017106Y018926D01*
X017106Y018788D02*
X017046Y018788D01*
X017046Y018926D02*
X017106Y018926D01*
X016909Y018926D02*
X016909Y018650D01*
X016849Y018650D01*
X016849Y018926D01*
X016909Y018926D01*
X016909Y018788D02*
X016849Y018788D01*
X016849Y018926D02*
X016909Y018926D01*
X016712Y018926D02*
X016712Y018650D01*
X016652Y018650D01*
X016652Y018926D01*
X016712Y018926D01*
X016712Y018788D02*
X016652Y018788D01*
X016652Y018926D02*
X016712Y018926D01*
X016516Y018926D02*
X016516Y018650D01*
X016456Y018650D01*
X016456Y018926D01*
X016516Y018926D01*
X016516Y018788D02*
X016456Y018788D01*
X016456Y018926D02*
X016516Y018926D01*
X016338Y019043D02*
X016062Y019043D01*
X016062Y019103D01*
X016338Y019103D01*
X016338Y019043D01*
X016338Y019240D02*
X016062Y019240D01*
X016062Y019300D01*
X016338Y019300D01*
X016338Y019240D01*
X016338Y019437D02*
X016062Y019437D01*
X016062Y019497D01*
X016338Y019497D01*
X016338Y019437D01*
X016338Y019634D02*
X016062Y019634D01*
X016062Y019694D01*
X016338Y019694D01*
X016338Y019634D01*
X016456Y019811D02*
X016456Y020087D01*
X016516Y020087D01*
X016516Y019811D01*
X016456Y019811D01*
X016456Y019949D02*
X016516Y019949D01*
X016516Y020087D02*
X016456Y020087D01*
X016652Y020087D02*
X016652Y019811D01*
X016652Y020087D02*
X016712Y020087D01*
X016712Y019811D01*
X016652Y019811D01*
X016652Y019949D02*
X016712Y019949D01*
X016712Y020087D02*
X016652Y020087D01*
X016849Y020087D02*
X016849Y019811D01*
X016849Y020087D02*
X016909Y020087D01*
X016909Y019811D01*
X016849Y019811D01*
X016849Y019949D02*
X016909Y019949D01*
X016909Y020087D02*
X016849Y020087D01*
X017046Y020087D02*
X017046Y019811D01*
X017046Y020087D02*
X017106Y020087D01*
X017106Y019811D01*
X017046Y019811D01*
X017046Y019949D02*
X017106Y019949D01*
X017106Y020087D02*
X017046Y020087D01*
D13*
X017062Y019650D02*
X016500Y019650D01*
X017062Y019650D02*
X017062Y019088D01*
X016500Y019088D01*
X016500Y019650D01*
X016500Y019274D02*
X017062Y019274D01*
X017062Y019460D02*
X016500Y019460D01*
X016500Y019646D02*
X017062Y019646D01*
D14*
X015335Y019989D03*
X014587Y019989D03*
X017187Y017349D03*
X017935Y017349D03*
D15*
X016801Y020895D03*
X016801Y021643D03*
X020639Y024431D03*
X020639Y025179D03*
X033810Y025025D03*
X033810Y024356D03*
D16*
X019927Y024403D03*
X019671Y024403D03*
X019415Y024403D03*
X019159Y024403D03*
X018903Y024403D03*
X018647Y024403D03*
X018391Y024403D03*
X018135Y024403D03*
X018135Y026607D03*
X018391Y026607D03*
X018647Y026607D03*
X018903Y026607D03*
X019159Y026607D03*
X019415Y026607D03*
X019671Y026607D03*
X019927Y026607D03*
D17*
X019031Y025505D03*
D18*
X019359Y027394D03*
X019359Y028496D03*
X026069Y019278D03*
X025063Y018468D03*
X026069Y018176D03*
X025063Y017365D03*
D19*
X022179Y026776D03*
X022179Y030713D03*
D20*
X022019Y025594D03*
X022019Y022936D03*
D21*
X023859Y019272D03*
X023859Y018362D03*
X023859Y017452D03*
D22*
X021418Y018362D03*
D23*
X030438Y019847D03*
X031540Y019847D03*
D24*
X029694Y030588D03*
X028750Y030595D03*
X028750Y031422D03*
X029694Y031415D03*
D25*
X032564Y027721D03*
X032564Y027524D03*
X032564Y027327D03*
X032564Y027130D03*
X032564Y026933D03*
X032564Y026736D03*
X032564Y026539D03*
X032564Y026343D03*
X032564Y026146D03*
X032564Y025949D03*
X032564Y025752D03*
X032564Y025555D03*
X032564Y025358D03*
X032564Y025162D03*
X032564Y024965D03*
X032564Y024768D03*
X032564Y024571D03*
X032564Y024374D03*
X032564Y024177D03*
X032564Y023980D03*
X032564Y023784D03*
X032564Y023587D03*
X032564Y023390D03*
X032564Y023193D03*
X032564Y022996D03*
X026462Y022996D03*
X026462Y023193D03*
X026462Y023390D03*
X026462Y023587D03*
X026462Y023784D03*
X026462Y023980D03*
X026462Y024177D03*
X026462Y024374D03*
X026462Y024571D03*
X026462Y024768D03*
X026462Y024965D03*
X026462Y025162D03*
X026462Y025358D03*
X026462Y025555D03*
X026462Y025752D03*
X026462Y025949D03*
X026462Y026146D03*
X026462Y026343D03*
X026462Y026539D03*
X026462Y026736D03*
X026462Y026933D03*
X026462Y027130D03*
X026462Y027327D03*
X026462Y027524D03*
X026462Y027721D03*
D26*
X027151Y028410D03*
X027348Y028410D03*
X027545Y028410D03*
X027741Y028410D03*
X027938Y028410D03*
X028135Y028410D03*
X028332Y028410D03*
X028529Y028410D03*
X028726Y028410D03*
X028923Y028410D03*
X029119Y028410D03*
X029316Y028410D03*
X029513Y028410D03*
X029710Y028410D03*
X029907Y028410D03*
X030104Y028410D03*
X030301Y028410D03*
X030497Y028410D03*
X030694Y028410D03*
X030891Y028410D03*
X031088Y028410D03*
X031285Y028410D03*
X031482Y028410D03*
X031679Y028410D03*
X031875Y028410D03*
X031875Y022307D03*
X031679Y022307D03*
X031482Y022307D03*
X031285Y022307D03*
X031088Y022307D03*
X030891Y022307D03*
X030694Y022307D03*
X030497Y022307D03*
X030301Y022307D03*
X030104Y022307D03*
X029907Y022307D03*
X029710Y022307D03*
X029513Y022307D03*
X029316Y022307D03*
X029119Y022307D03*
X028923Y022307D03*
X028726Y022307D03*
X028529Y022307D03*
X028332Y022307D03*
X028135Y022307D03*
X027938Y022307D03*
X027741Y022307D03*
X027545Y022307D03*
X027348Y022307D03*
X027151Y022307D03*
D27*
X034659Y024534D03*
X034659Y025034D03*
D28*
X033504Y025770D03*
X033504Y026754D03*
D29*
X033680Y029141D03*
X033020Y029141D03*
X033020Y030001D03*
X033680Y030001D03*
D30*
X025450Y027325D03*
D31*
X036360Y024361D03*
X036420Y023610D03*
X036468Y022643D03*
X036411Y021818D03*
X036455Y020983D03*
X036461Y020195D03*
X036456Y019421D03*
X036472Y018665D03*
X035381Y017478D03*
X038044Y028774D03*
D32*
X021429Y015455D03*
X021428Y014711D03*
X021428Y013962D03*
X021429Y013214D03*
X021427Y012463D03*
X021428Y011717D03*
X021428Y010964D03*
X021428Y010215D03*
X021428Y009466D03*
X014620Y009471D03*
X014621Y010215D03*
X014621Y010964D03*
X014620Y011712D03*
X014622Y012463D03*
X014621Y013209D03*
X014621Y013962D03*
X014621Y014711D03*
X014621Y015460D03*
D33*
X013246Y013171D03*
X012734Y013171D03*
X012877Y012379D03*
X013389Y012379D03*
X013250Y011521D03*
X012738Y011521D03*
X012631Y010740D03*
X013143Y010740D03*
X022230Y013024D03*
X022742Y013024D03*
X022991Y014736D03*
X022479Y014736D03*
X022725Y010195D03*
X023237Y010195D03*
D34*
X028217Y014546D03*
X028414Y014546D03*
X028611Y014546D03*
X028808Y014546D03*
X029005Y014546D03*
X029202Y014546D03*
X029399Y014546D03*
X029595Y014546D03*
X029792Y014546D03*
X029989Y014546D03*
X030186Y014546D03*
X030383Y014546D03*
X030580Y014546D03*
X030776Y014546D03*
X030973Y014546D03*
X031170Y014546D03*
X031367Y014546D03*
X031564Y014546D03*
X031761Y014546D03*
X031958Y014546D03*
X032154Y014546D03*
X032351Y014546D03*
X032548Y014546D03*
X032745Y014546D03*
X032942Y014546D03*
X033139Y014546D03*
X033336Y014546D03*
X033532Y014546D03*
X033729Y014546D03*
X033729Y014546D03*
X033926Y014546D03*
X033926Y016908D03*
X033729Y016908D03*
X033729Y016908D03*
X033532Y016908D03*
X033336Y016908D03*
X033139Y016908D03*
X032942Y016908D03*
X032745Y016908D03*
X032548Y016908D03*
X032351Y016908D03*
X032154Y016908D03*
X031958Y016908D03*
X031761Y016908D03*
X031564Y016908D03*
X031367Y016908D03*
X031170Y016908D03*
X030973Y016908D03*
X030776Y016908D03*
X030580Y016908D03*
X030383Y016908D03*
X030186Y016908D03*
X029989Y016908D03*
X029792Y016908D03*
X029595Y016908D03*
X029399Y016908D03*
X029202Y016908D03*
X029005Y016908D03*
X028808Y016908D03*
X028611Y016908D03*
X028414Y016908D03*
X028217Y016908D03*
D35*
X024222Y012640D03*
X038001Y012640D03*
X038001Y004372D03*
X024222Y004372D03*
D36*
X022987Y004443D03*
X023003Y005408D03*
X022987Y006431D03*
D37*
X013046Y004475D03*
X013038Y005435D03*
X013038Y006365D03*
D38*
X009978Y026170D03*
X004781Y029749D03*
X004781Y032052D03*
X010096Y032052D03*
D39*
X008581Y026241D03*
X008148Y026241D03*
X007714Y026241D03*
X007281Y026241D03*
X006848Y026241D03*
X006415Y026241D03*
X005982Y026241D03*
X005549Y026241D03*
D40*
X004940Y026128D03*
D41*
X012968Y021784D03*
X013399Y021800D03*
X013895Y021824D03*
X014381Y021779D03*
X014875Y021762D03*
X015310Y021811D03*
X015634Y021739D03*
X015775Y022555D03*
X015349Y022562D03*
X016312Y022565D03*
X016786Y022581D03*
X013112Y020968D03*
X013171Y020440D03*
X013178Y019775D03*
X013171Y019124D03*
X013133Y018776D03*
X016605Y019197D03*
X016949Y019195D03*
X016958Y019547D03*
X016602Y019549D03*
X024066Y020848D03*
X024581Y020573D03*
X024671Y021039D03*
X019419Y025185D03*
X019059Y025185D03*
X019059Y025545D03*
X019059Y025845D03*
X019359Y025845D03*
X018699Y025845D03*
X018699Y025185D03*
X017679Y026505D03*
D42*
X024942Y026210D03*
X026022Y026630D03*
X026922Y025970D03*
X027282Y025130D03*
X027042Y024530D03*
X026022Y024230D03*
X025062Y024710D03*
X028962Y023090D03*
X028962Y021830D03*
X029082Y021470D03*
X029562Y021830D03*
X031602Y020510D03*
X033222Y020750D03*
X035202Y020750D03*
X036042Y021350D03*
X033702Y022430D03*
X033402Y022190D03*
X034242Y023810D03*
X035322Y024050D03*
X035322Y025130D03*
X034842Y025370D03*
X033942Y026210D03*
X035802Y026210D03*
X036462Y025790D03*
X037482Y025850D03*
X037062Y026690D03*
X036822Y029270D03*
X035082Y030290D03*
X036042Y030590D03*
X036822Y031550D03*
X033702Y031310D03*
X030882Y028850D03*
X028902Y028850D03*
X026022Y031190D03*
X031842Y026390D03*
X031482Y025370D03*
X029562Y025130D03*
X032082Y024410D03*
X033222Y024530D03*
X026922Y021050D03*
X023262Y021530D03*
X022782Y022370D03*
X019782Y021110D03*
X019782Y020330D03*
X018342Y019970D03*
X023322Y019730D03*
X025662Y018710D03*
X028302Y018590D03*
X030222Y017510D03*
X032202Y018530D03*
X031242Y019190D03*
X030762Y019070D03*
X033102Y016310D03*
X030462Y015410D03*
X023202Y017330D03*
X021822Y015950D03*
X019122Y015110D03*
X023082Y013370D03*
X014142Y015410D03*
X012942Y013550D03*
X012702Y011930D03*
X023442Y006890D03*
X017202Y004490D03*
X006162Y025730D03*
X008022Y026750D03*
D43*
X018144Y018817D03*
D44*
X023470Y022936D03*
D45*
X015371Y020648D03*
X011432Y031159D03*
M02*
