G75*
G70*
%OFA0B0*%
%FSLAX24Y24*%
%IPPOS*%
%LPD*%
%AMOC8*
5,1,8,0,0,1.08239X$1,22.5*
%
%ADD10OC8,0.0930*%
%ADD11C,0.0946*%
%ADD12R,0.1655X0.0867*%
%ADD13C,0.0390*%
%ADD14C,0.0360*%
%ADD15R,0.0400X0.0400*%
%ADD16C,0.0400*%
%ADD17R,0.0476X0.0476*%
D10*
X025450Y027325D03*
D11*
X024222Y012640D03*
X038001Y012640D03*
X038001Y004372D03*
X024222Y004372D03*
D12*
X027126Y002036D03*
X027126Y011878D03*
X027126Y011940D03*
X027126Y021783D03*
X027045Y021819D03*
X027045Y031661D03*
X057092Y031659D03*
X057102Y021817D03*
X057092Y021817D03*
X057102Y011975D03*
X057102Y011884D03*
X057102Y002041D03*
D13*
X016949Y019195D03*
X016605Y019197D03*
X016602Y019549D03*
X016958Y019547D03*
X013178Y019775D03*
X013171Y019124D03*
X013133Y018776D03*
X013171Y020440D03*
X013112Y020968D03*
X012968Y021784D03*
X013399Y021800D03*
X013895Y021824D03*
X014381Y021779D03*
X014875Y021762D03*
X015310Y021811D03*
X015634Y021739D03*
X015775Y022555D03*
X015349Y022562D03*
X016312Y022565D03*
X016786Y022581D03*
X018699Y025185D03*
X019059Y025185D03*
X019059Y025545D03*
X019059Y025845D03*
X019359Y025845D03*
X018699Y025845D03*
X019419Y025185D03*
X017679Y026505D03*
X024671Y021039D03*
X024066Y020848D03*
X024581Y020573D03*
D14*
X017202Y004490D03*
X023442Y006890D03*
X012702Y011930D03*
X012942Y013550D03*
X014142Y015410D03*
X019122Y015110D03*
X021822Y015950D03*
X023202Y017330D03*
X025662Y018710D03*
X023322Y019730D03*
X023262Y021530D03*
X022782Y022370D03*
X019782Y021110D03*
X019782Y020330D03*
X018342Y019970D03*
X026922Y021050D03*
X028962Y021830D03*
X029082Y021470D03*
X029562Y021830D03*
X028962Y023090D03*
X027042Y024530D03*
X026022Y024230D03*
X025062Y024710D03*
X027282Y025130D03*
X026922Y025970D03*
X026022Y026630D03*
X024942Y026210D03*
X029562Y025130D03*
X031482Y025370D03*
X031842Y026390D03*
X033942Y026210D03*
X034842Y025370D03*
X035322Y025130D03*
X036462Y025790D03*
X035802Y026210D03*
X037062Y026690D03*
X037482Y025850D03*
X035322Y024050D03*
X034242Y023810D03*
X033222Y024530D03*
X032082Y024410D03*
X033702Y022430D03*
X033402Y022190D03*
X033222Y020750D03*
X031602Y020510D03*
X031242Y019190D03*
X030762Y019070D03*
X032202Y018530D03*
X030222Y017510D03*
X028302Y018590D03*
X033102Y016310D03*
X030462Y015410D03*
X023082Y013370D03*
X035202Y020750D03*
X036042Y021350D03*
X030882Y028850D03*
X028902Y028850D03*
X026022Y031190D03*
X033702Y031310D03*
X035082Y030290D03*
X036042Y030590D03*
X036822Y031550D03*
X036822Y029270D03*
X008022Y026750D03*
X006162Y025730D03*
D15*
X018144Y018817D03*
D16*
X023470Y022936D03*
D17*
X015371Y020648D03*
X011432Y031159D03*
M02*
