%
M48
M72
T01C0.0120
T02C0.0150
T03C0.0160
T04C0.0236
T05C0.0520
T06C0.0866
%
T01
X17202Y4490
X23442Y6890
X12702Y11930
X12942Y13550
X14142Y15410
X19122Y15110
X21822Y15950
X23202Y17330
X25662Y18710
X23322Y19730
X23262Y21530
X22782Y22370
X19782Y21110
X19782Y20330
X18342Y19970
X26922Y21050
X28962Y21830
X29082Y21470
X29562Y21830
X28962Y23090
X27042Y24530
X26022Y24230
X25062Y24710
X27282Y25130
X26922Y25970
X26022Y26630
X24942Y26210
X29562Y25130
X31482Y25370
X31842Y26390
X33942Y26210
X34842Y25370
X35322Y25130
X36462Y25790
X35802Y26210
X37062Y26690
X37482Y25850
X35322Y24050
X34242Y23810
X33222Y24530
X32082Y24410
X33702Y22430
X33402Y22190
X33222Y20750
X31602Y20510
X31242Y19190
X30762Y19070
X32202Y18530
X30222Y17510
X28302Y18590
X33102Y16310
X30462Y15410
X23082Y13370
X35202Y20750
X36042Y21350
X30882Y28850
X28902Y28850
X26022Y31190
X33702Y31310
X35082Y30290
X36042Y30590
X36822Y31550
X36822Y29270
X8022Y26750
X6162Y25730
T02
X12968Y21784
X13399Y21800
X13895Y21824
X14381Y21779
X14875Y21762
X15310Y21811
X15634Y21739
X15775Y22555
X15349Y22562
X16312Y22565
X16786Y22581
X13112Y20968
X13171Y20440
X13178Y19775
X13171Y19124
X13133Y18776
X16605Y19197
X16949Y19195
X16958Y19547
X16602Y19549
X24066Y20848
X24581Y20573
X24671Y21039
X19419Y25185
X19059Y25185
X19059Y25545
X19059Y25845
X19359Y25845
X18699Y25845
X18699Y25185
X17679Y26505
T03
X23470Y22936
X18144Y18817
T04
X15371Y20648
X11432Y31159
T05
X25450Y27325
T06
X24222Y12640
X38001Y12640
X38001Y4372
X24222Y4372
M30
