G75*
G70*
%OFA0B0*%
%FSLAX24Y24*%
%IPPOS*%
%LPD*%
%AMOC8*
5,1,8,0,0,1.08239X$1,22.5*
%
%ADD10R,0.0394X0.0433*%
%ADD11R,0.0433X0.0394*%
%ADD12C,0.0083*%
%ADD13C,0.0167*%
%ADD14R,0.0512X0.0591*%
%ADD15R,0.0591X0.0512*%
%ADD16R,0.0118X0.0591*%
%ADD17R,0.0969X0.0969*%
%ADD18R,0.0709X0.0630*%
%ADD19R,0.1339X0.0945*%
%ADD20R,0.1063X0.1161*%
%ADD21R,0.0880X0.0480*%
%ADD22R,0.0866X0.1417*%
%ADD23R,0.0630X0.0866*%
%ADD24R,0.0492X0.0472*%
%ADD25R,0.0472X0.0126*%
%ADD26R,0.0126X0.0472*%
%ADD27R,0.0400X0.0250*%
%ADD28R,0.0748X0.0433*%
%ADD29R,0.0250X0.0500*%
%ADD30R,0.0551X0.0650*%
%ADD31R,0.0276X0.0354*%
%ADD32R,0.0098X0.0787*%
%ADD33R,0.0866X0.0472*%
%ADD34R,0.0787X0.0472*%
%ADD35R,0.0669X0.0591*%
%ADD36R,0.0315X0.0591*%
%ADD37R,0.0591X0.0591*%
D10*
X022624Y010945D03*
X023293Y010945D03*
X022870Y012378D03*
X022201Y012378D03*
X022251Y013942D03*
X022921Y013942D03*
X019455Y017549D03*
X018786Y017549D03*
X018766Y018329D03*
X019435Y018329D03*
X019415Y019169D03*
X018746Y019169D03*
X018766Y019969D03*
X019435Y019969D03*
X019435Y020749D03*
X018766Y020749D03*
X015115Y019189D03*
X014446Y019189D03*
X014466Y018429D03*
X015135Y018429D03*
X015175Y017809D03*
X014506Y017809D03*
X028697Y020723D03*
X029366Y020723D03*
X030600Y020908D03*
X031269Y020908D03*
X034083Y020955D03*
X034752Y020955D03*
X034784Y020320D03*
X035453Y020320D03*
X035564Y019608D03*
X034894Y019608D03*
X034677Y018952D03*
X035346Y018952D03*
X035435Y021852D03*
X034766Y021852D03*
X034755Y022630D03*
X035424Y022630D03*
X035363Y023605D03*
X034694Y023605D03*
X036168Y025230D03*
X036838Y025230D03*
X036903Y026237D03*
X036233Y026237D03*
X035013Y025883D03*
X034343Y025883D03*
X034335Y027015D03*
X035004Y027015D03*
X031587Y029367D03*
X030917Y029367D03*
X018234Y028425D03*
X017564Y028425D03*
X017564Y027565D03*
X018234Y027565D03*
X013658Y029762D03*
X012988Y029762D03*
D11*
X007436Y025375D03*
X006767Y025375D03*
X016101Y021683D03*
X016101Y021014D03*
X017819Y022810D03*
X019059Y022770D03*
X019059Y023440D03*
X017819Y023480D03*
X019939Y023440D03*
X019939Y022770D03*
X030727Y018655D03*
X031392Y018619D03*
X030727Y017986D03*
X031392Y017950D03*
X033252Y017844D03*
X033934Y017901D03*
X033934Y018571D03*
X033252Y018513D03*
X015941Y017783D03*
X015941Y017114D03*
X013357Y015392D03*
X013357Y014722D03*
X033249Y027785D03*
X033249Y028454D03*
X032336Y029229D03*
X032336Y029899D03*
X029710Y030000D03*
X028765Y029995D03*
X028765Y029326D03*
X029710Y029331D03*
X025372Y029194D03*
X025372Y028525D03*
X035639Y029580D03*
X036434Y029579D03*
X036434Y030248D03*
X035639Y030250D03*
X035646Y030985D03*
X036353Y031016D03*
X036353Y031685D03*
X035646Y031655D03*
X035724Y028819D03*
X036537Y028858D03*
X036537Y028188D03*
X035724Y028149D03*
D12*
X017487Y019682D02*
X017235Y019682D01*
X017487Y019682D02*
X017487Y019646D01*
X017235Y019646D01*
X017235Y019682D01*
X017235Y019485D02*
X017487Y019485D01*
X017487Y019449D01*
X017235Y019449D01*
X017235Y019485D01*
X017235Y019288D02*
X017487Y019288D01*
X017487Y019252D01*
X017235Y019252D01*
X017235Y019288D01*
X017235Y019091D02*
X017487Y019091D01*
X017487Y019055D01*
X017235Y019055D01*
X017235Y019091D01*
X017094Y018914D02*
X017094Y018662D01*
X017058Y018662D01*
X017058Y018914D01*
X017094Y018914D01*
X017094Y018744D02*
X017058Y018744D01*
X017058Y018826D02*
X017094Y018826D01*
X017094Y018908D02*
X017058Y018908D01*
X016897Y018914D02*
X016897Y018662D01*
X016861Y018662D01*
X016861Y018914D01*
X016897Y018914D01*
X016897Y018744D02*
X016861Y018744D01*
X016861Y018826D02*
X016897Y018826D01*
X016897Y018908D02*
X016861Y018908D01*
X016700Y018914D02*
X016700Y018662D01*
X016664Y018662D01*
X016664Y018914D01*
X016700Y018914D01*
X016700Y018744D02*
X016664Y018744D01*
X016664Y018826D02*
X016700Y018826D01*
X016700Y018908D02*
X016664Y018908D01*
X016504Y018914D02*
X016504Y018662D01*
X016468Y018662D01*
X016468Y018914D01*
X016504Y018914D01*
X016504Y018744D02*
X016468Y018744D01*
X016468Y018826D02*
X016504Y018826D01*
X016504Y018908D02*
X016468Y018908D01*
X016326Y019055D02*
X016074Y019055D01*
X016074Y019091D01*
X016326Y019091D01*
X016326Y019055D01*
X016326Y019252D02*
X016074Y019252D01*
X016074Y019288D01*
X016326Y019288D01*
X016326Y019252D01*
X016326Y019449D02*
X016074Y019449D01*
X016074Y019485D01*
X016326Y019485D01*
X016326Y019449D01*
X016326Y019646D02*
X016074Y019646D01*
X016074Y019682D01*
X016326Y019682D01*
X016326Y019646D01*
X016468Y019823D02*
X016468Y020075D01*
X016504Y020075D01*
X016504Y019823D01*
X016468Y019823D01*
X016468Y019905D02*
X016504Y019905D01*
X016504Y019987D02*
X016468Y019987D01*
X016468Y020069D02*
X016504Y020069D01*
X016664Y020075D02*
X016664Y019823D01*
X016664Y020075D02*
X016700Y020075D01*
X016700Y019823D01*
X016664Y019823D01*
X016664Y019905D02*
X016700Y019905D01*
X016700Y019987D02*
X016664Y019987D01*
X016664Y020069D02*
X016700Y020069D01*
X016861Y020075D02*
X016861Y019823D01*
X016861Y020075D02*
X016897Y020075D01*
X016897Y019823D01*
X016861Y019823D01*
X016861Y019905D02*
X016897Y019905D01*
X016897Y019987D02*
X016861Y019987D01*
X016861Y020069D02*
X016897Y020069D01*
X017058Y020075D02*
X017058Y019823D01*
X017058Y020075D02*
X017094Y020075D01*
X017094Y019823D01*
X017058Y019823D01*
X017058Y019905D02*
X017094Y019905D01*
X017094Y019987D02*
X017058Y019987D01*
X017058Y020069D02*
X017094Y020069D01*
D13*
X017032Y019620D02*
X016530Y019620D01*
X017032Y019620D02*
X017032Y019118D01*
X016530Y019118D01*
X016530Y019620D01*
X016530Y019284D02*
X017032Y019284D01*
X017032Y019450D02*
X016530Y019450D01*
X016530Y019616D02*
X017032Y019616D01*
D14*
X015335Y019989D03*
X014587Y019989D03*
X017187Y017349D03*
X017935Y017349D03*
D15*
X016801Y020895D03*
X016801Y021643D03*
X020639Y024431D03*
X020639Y025179D03*
X033810Y025025D03*
X033810Y024356D03*
D16*
X019927Y024403D03*
X019671Y024403D03*
X019415Y024403D03*
X019159Y024403D03*
X018903Y024403D03*
X018647Y024403D03*
X018391Y024403D03*
X018135Y024403D03*
X018135Y026607D03*
X018391Y026607D03*
X018647Y026607D03*
X018903Y026607D03*
X019159Y026607D03*
X019415Y026607D03*
X019671Y026607D03*
X019927Y026607D03*
D17*
X019031Y025505D03*
D18*
X019359Y027394D03*
X019359Y028496D03*
X026069Y019278D03*
X025063Y018468D03*
X026069Y018176D03*
X025063Y017365D03*
D19*
X022179Y026776D03*
X022179Y030713D03*
D20*
X022019Y025594D03*
X022019Y022936D03*
D21*
X023859Y019272D03*
X023859Y018362D03*
X023859Y017452D03*
D22*
X021418Y018362D03*
D23*
X030438Y019847D03*
X031540Y019847D03*
D24*
X029694Y030588D03*
X028750Y030595D03*
X028750Y031422D03*
X029694Y031415D03*
D25*
X032564Y027721D03*
X032564Y027524D03*
X032564Y027327D03*
X032564Y027130D03*
X032564Y026933D03*
X032564Y026736D03*
X032564Y026539D03*
X032564Y026343D03*
X032564Y026146D03*
X032564Y025949D03*
X032564Y025752D03*
X032564Y025555D03*
X032564Y025358D03*
X032564Y025162D03*
X032564Y024965D03*
X032564Y024768D03*
X032564Y024571D03*
X032564Y024374D03*
X032564Y024177D03*
X032564Y023980D03*
X032564Y023784D03*
X032564Y023587D03*
X032564Y023390D03*
X032564Y023193D03*
X032564Y022996D03*
X026462Y022996D03*
X026462Y023193D03*
X026462Y023390D03*
X026462Y023587D03*
X026462Y023784D03*
X026462Y023980D03*
X026462Y024177D03*
X026462Y024374D03*
X026462Y024571D03*
X026462Y024768D03*
X026462Y024965D03*
X026462Y025162D03*
X026462Y025358D03*
X026462Y025555D03*
X026462Y025752D03*
X026462Y025949D03*
X026462Y026146D03*
X026462Y026343D03*
X026462Y026539D03*
X026462Y026736D03*
X026462Y026933D03*
X026462Y027130D03*
X026462Y027327D03*
X026462Y027524D03*
X026462Y027721D03*
D26*
X027151Y028410D03*
X027348Y028410D03*
X027545Y028410D03*
X027741Y028410D03*
X027938Y028410D03*
X028135Y028410D03*
X028332Y028410D03*
X028529Y028410D03*
X028726Y028410D03*
X028923Y028410D03*
X029119Y028410D03*
X029316Y028410D03*
X029513Y028410D03*
X029710Y028410D03*
X029907Y028410D03*
X030104Y028410D03*
X030301Y028410D03*
X030497Y028410D03*
X030694Y028410D03*
X030891Y028410D03*
X031088Y028410D03*
X031285Y028410D03*
X031482Y028410D03*
X031679Y028410D03*
X031875Y028410D03*
X031875Y022307D03*
X031679Y022307D03*
X031482Y022307D03*
X031285Y022307D03*
X031088Y022307D03*
X030891Y022307D03*
X030694Y022307D03*
X030497Y022307D03*
X030301Y022307D03*
X030104Y022307D03*
X029907Y022307D03*
X029710Y022307D03*
X029513Y022307D03*
X029316Y022307D03*
X029119Y022307D03*
X028923Y022307D03*
X028726Y022307D03*
X028529Y022307D03*
X028332Y022307D03*
X028135Y022307D03*
X027938Y022307D03*
X027741Y022307D03*
X027545Y022307D03*
X027348Y022307D03*
X027151Y022307D03*
D27*
X034659Y024534D03*
X034659Y025034D03*
D28*
X033504Y025770D03*
X033504Y026754D03*
D29*
X033680Y029141D03*
X033020Y029141D03*
X033020Y030001D03*
X033680Y030001D03*
D30*
X021429Y015455D03*
X021428Y014711D03*
X021428Y013962D03*
X021429Y013214D03*
X021427Y012463D03*
X021428Y011717D03*
X021428Y010964D03*
X021428Y010215D03*
X021428Y009466D03*
X014620Y009471D03*
X014621Y010215D03*
X014621Y010964D03*
X014620Y011712D03*
X014622Y012463D03*
X014621Y013209D03*
X014621Y013962D03*
X014621Y014711D03*
X014621Y015460D03*
D31*
X013246Y013171D03*
X012734Y013171D03*
X012877Y012379D03*
X013389Y012379D03*
X013250Y011521D03*
X012738Y011521D03*
X012631Y010740D03*
X013143Y010740D03*
X022230Y013024D03*
X022742Y013024D03*
X022991Y014736D03*
X022479Y014736D03*
X022725Y010195D03*
X023237Y010195D03*
D32*
X028217Y014546D03*
X028414Y014546D03*
X028611Y014546D03*
X028808Y014546D03*
X029005Y014546D03*
X029202Y014546D03*
X029399Y014546D03*
X029595Y014546D03*
X029792Y014546D03*
X029989Y014546D03*
X030186Y014546D03*
X030383Y014546D03*
X030580Y014546D03*
X030776Y014546D03*
X030973Y014546D03*
X031170Y014546D03*
X031367Y014546D03*
X031564Y014546D03*
X031761Y014546D03*
X031958Y014546D03*
X032154Y014546D03*
X032351Y014546D03*
X032548Y014546D03*
X032745Y014546D03*
X032942Y014546D03*
X033139Y014546D03*
X033336Y014546D03*
X033532Y014546D03*
X033729Y014546D03*
X033729Y014546D03*
X033926Y014546D03*
X033926Y016908D03*
X033729Y016908D03*
X033729Y016908D03*
X033532Y016908D03*
X033336Y016908D03*
X033139Y016908D03*
X032942Y016908D03*
X032745Y016908D03*
X032548Y016908D03*
X032351Y016908D03*
X032154Y016908D03*
X031958Y016908D03*
X031761Y016908D03*
X031564Y016908D03*
X031367Y016908D03*
X031170Y016908D03*
X030973Y016908D03*
X030776Y016908D03*
X030580Y016908D03*
X030383Y016908D03*
X030186Y016908D03*
X029989Y016908D03*
X029792Y016908D03*
X029595Y016908D03*
X029399Y016908D03*
X029202Y016908D03*
X029005Y016908D03*
X028808Y016908D03*
X028611Y016908D03*
X028414Y016908D03*
X028217Y016908D03*
D33*
X022987Y006431D03*
X023003Y005408D03*
X022987Y004443D03*
D34*
X013046Y004475D03*
X013038Y005435D03*
X013038Y006365D03*
D35*
X009978Y026170D03*
X004781Y029749D03*
X004781Y032052D03*
X010096Y032052D03*
D36*
X008581Y026241D03*
X008148Y026241D03*
X007714Y026241D03*
X007281Y026241D03*
X006848Y026241D03*
X006415Y026241D03*
X005982Y026241D03*
X005549Y026241D03*
D37*
X004940Y026128D03*
M02*
